# xmcd
#
# Track frame offsets: 
#        150
#        8972
#        27925
#        41187
#        61158
#        78562
#        99748
#        117330
#        154607
#        169844
#        184635
#        199332
#        210176
#        232303
#
# Disc length: 3260 seconds
#
# Revision: 0
# Processed by: cddbd v1.5.2PL0 Copyright (c) Steve Scherf et al.
# Submitted via: ExactAudioCopy v0.95b4
#
DISCID=bb0cba0e
DTITLE=Brandon Godman - To Fiddle... Or Not To Fiddle
DYEAR=2006
DGENRE=Bluegrass
TTITLE0=01 Tugboat
TTITLE1=02 Jerusalem Ridge
TTITLE2=03 Keith's Waltz
TTITLE3=04 Lady Be Good 
TTITLE4=Ragtime Annie
TTITLE5=06 El Cumbanchero 
TTITLE6=07 Flopareno
TTITLE7=08 Lorena
TTITLE8=09 Old Traveler
TTITLE9=10 Presque Gitan
TTITLE10=11 Goodnight Waltz
TTITLE11=12 Cotton Patch Rag
TTITLE12=13 Flintstones Theme Song
TTITLE13=14 My Old Kentucky Home
EXTD=
EXTT0=
EXTT1=
EXTT2=
EXTT3=
EXTT4=
EXTT5=
EXTT6=
EXTT7=
EXTT8=
EXTT9=
EXTT10=
EXTT11=
EXTT12=
EXTT13=
PLAYORDER=
